#!OML:ASF I:\Actors\actors\Patient Classification 1\Patient 1\Session 1\Subject1.ASF
:FULLY-SPECIFIED
:DEGREES
729
root 0.688403 17.4542 9.1238 0.341843 11.6887 -6.95932
lowerback -4.17898 4.13094 7.2019
upperback -10.3543 5.61264 -1.11304
thorax -7.84075 2.21873 -5.30138
lowerneck -9.26167 -0.693044 2.34771
upperneck 26.6505 0.960583 -8.3664
head 10.0099 -0.197075 -3.24521
rclavicle 3.97569e-015 -2.38542e-015
rhumerus -52.3164 35.0941 -118.6
rradius 109.131
rwrist -10.7193
rhand 10.2747 -24.6682
rfingers 7.12502
rthumb 35.3868 -411.133
lclavicle 3.97569e-015 -2.38542e-015
lhumerus 122.472 200.19 284.333
lradius 111.693
lwrist 18.9607
lhand -3.12098 -18.1776
lfingers 7.12502
lthumb 22.5979 10.5197
rfemur 3.48653 14.5498 27.4232
rtibia 11.7437
rfoot -20.2807 -24.1561
rtoes -0.012829
lfemur 4.30279 -27.2038 -11.2735
ltibia 2.91359
lfoot -9.15915 23.882
ltoes -19.434
730
root 0.731064 17.4941 9.13638 1.19726 10.7196 -6.8117
lowerback -5.28566 3.78425 7.06843
upperback -10.5898 5.09305 -0.581643
thorax -7.59601 2.00158 -4.5921
lowerneck -9.77782 -0.593254 2.14013
upperneck 27.4081 1.00315 -7.71693
head 10.3906 -0.149554 -3.00187
rclavicle -1.74931e-014 8.74653e-015
rhumerus -52.2844 35.8006 -117.657
rradius 110.15
rwrist -10.4773
rhand 10.5075 -23.4486
rfingers 7.12502
rthumb 35.6075 -409.861
lclavicle -1.74931e-014 8.74653e-015
lhumerus 122.509 199.467 284.415
lradius 112.566
lwrist 18.981
lhand -3.03739 -18.3959
lfingers 7.12502
lthumb 22.6781 10.2916
rfemur 3.00586 15.3252 26.9922
rtibia 11.0415
rfoot -19.9131 -23.8623
rtoes 0.310205
lfemur 4.24238 -27.8522 -11.649
ltibia 2.40828
lfoot -9.28243 25.5102
ltoes -18.0641
731
root 0.770561 17.5281 9.14497 1.95919 9.64979 -6.79614
lowerback -5.76276 3.51267 7.34336
upperback -11.0674 4.72739 -0.272193
thorax -7.91782 1.78742 -4.40796
lowerneck -10.0832 -0.538229 2.25664
upperneck 28.1757 0.875815 -6.97135
head 10.7266 -0.127991 -2.79424
rclavicle 1.19271e-015 -1.35174e-014
rhumerus -52.3546 36.1051 -116.977
rradius 110.858
rwrist -10.3067
rhand 11.3015 -23.8125
rfingers 7.12502
rthumb 36.3597 -410.04
lclavicle 1.19271e-015 -1.35174e-014
lhumerus 122.004 199.059 284.511
lradius 113.273
lwrist 18.7006
lhand -2.96688 -18.7145
lfingers 7.12502
lthumb 22.7458 9.96473
rfemur 2.5344 16.1846 26.7038
rtibia 10.4273
rfoot -19.6444 -23.4819
rtoes 1.02243
lfemur 4.17533 -28.3111 -11.8316
ltibia 1.99972
lfoot -9.54055 27.0321
ltoes -16.7542
732
root 0.801715 17.5541 9.14747 2.61233 8.56316 -6.83495
lowerback -5.64486 3.30108 7.87143
upperback -11.7482 4.49502 -0.202832
thorax -8.77245 1.57489 -4.6644
lowerneck -10.2315 -0.583163 2.25763
upperneck 29.0299 0.478367 -5.73893
head 11.056 -0.177168 -2.41785
rclavicle 3.81667e-014 1.90833e-014
rhumerus -52.4931 35.8169 -116.548
rradius 111.27
rwrist -10.2411
rhand 11.3754 -22.9345
rfingers 7.12502
rthumb 36.4297 -409.144
lclavicle 3.81667e-014 1.90833e-014
lhumerus 120.794 198.986 284.709
lradius 113.964
lwrist 18.2464
lhand -2.88495 -18.7395
lfingers 7.12502
lthumb 22.8244 9.93007
rfemur 2.00311 17.0089 26.4813
rtibia 10.0104
rfoot -19.3421 -23.1641
rtoes 1.25129
lfemur 4.08641 -28.5323 -11.8667
ltibia 1.67103
lfoot -9.69592 28.3359
ltoes -15.9074
733
root 0.82666 17.5682 9.1463 3.14074 7.45775 -6.85272
lowerback -5.87096 2.97204 7.93916
upperback -11.9624 4.06439 0.189949
thorax -8.97238 1.35925 -4.27615
lowerneck -10.559 -0.60328 1.97363
upperneck 29.3826 0.132454 -4.49697
head 11.2436 -0.227867 -1.96727
rclavicle -7.55382e-015 9.14409e-015
rhumerus -51.892 36.0778 -115.445
rradius 111.296
rwrist -10.6291
rhand 11.5959 -22.6759
rfingers 7.12502
rthumb 36.6384 -408.833
lclavicle -7.55382e-015 9.14409e-015
lhumerus 120.142 198.577 285.186
lradius 114.454
lwrist 17.7876
lhand -2.88722 -18.5635
lfingers 7.12502
lthumb 22.8222 10.1063
rfemur 1.43351 17.5466 26.2228
rtibia 9.86069
rfoot -18.8607 -22.7773
rtoes 0.152602
lfemur 4.10442 -28.7414 -11.9752
ltibia 1.40755
lfoot -9.9271 29.6359
ltoes -14.8021
734
root 0.846431 17.5679 9.14157 3.46593 6.23848 -6.84563
lowerback -6.14563 2.53282 7.4345
upperback -11.8658 3.48531 0.942394
thorax -8.83775 1.16119 -3.17602
lowerneck -10.6761 -0.555323 1.82878
upperneck 29.1658 -0.0827034 -3.54141
head 11.1786 -0.233357 -1.61574
rclavicle 1.93815e-014 -3.27995e-014
rhumerus -51.0848 36.6718 -114.038
rradius 110.955
rwrist -11.0915
rhand 12.3666 -22.7602
rfingers 7.12502
rthumb 37.3673 -408.729
lclavicle 1.93815e-014 -3.27995e-014
lhumerus 119.803 197.737 286.098
lradius 114.586
lwrist 17.3337
lhand -3.24282 -18.5588
lfingers 7.12502
lthumb 22.4809 10.1527
rfemur 0.916368 17.961 25.9547
rtibia 9.97882
rfoot -18.4458 -22.1638
rtoes -1.14321
lfemur 4.31236 -28.7912 -12.2127
ltibia 1.26918
lfoot -10.4209 30.8075
ltoes -13.3168
735
root 0.861238 17.5528 9.13218 3.52748 4.87062 -6.82811
lowerback -6.36332 2.16682 7.44353
upperback -11.4971 2.95783 1.23631
thorax -8.36381 0.934298 -2.85108
lowerneck -10.6268 -0.483971 2.26179
upperneck 28.6518 -0.456051 -2.37762
head 10.9648 -0.22423 -1.30521
rclavicle 1.26725e-014 1.45113e-014
rhumerus -49.8818 36.7177 -113.29
rradius 110.26
rwrist -11.0554
rhand 12.6387 -22.4317
rfingers 7.12502
rthumb 37.6246 -408.332
lclavicle 1.26725e-014 1.45113e-014
lhumerus 119.477 197.422 286.39
lradius 114.465
lwrist 17.0418
lhand -3.99903 -18.5529
lfingers 7.12502
lthumb 21.7549 10.2445
rfemur 0.524956 18.4346 25.7305
rtibia 10.3476
rfoot -18.3086 -21.2788
rtoes -1.38273
lfemur 4.74729 -28.56 -12.575
ltibia 1.29946
lfoot -11.0124 31.7563
ltoes -12.0552
736
root 0.872212 17.5251 9.11615 3.35716 3.41361 -6.847
lowerback -6.24047 1.81857 7.21987
upperback -11.0339 2.48933 1.62134
thorax -7.97833 0.75654 -2.31778
lowerneck -10.6775 -0.501748 2.76308
upperneck 28.2529 -0.924386 -1.33799
head 10.8191 -0.270051 -1.0695
rclavicle 2.03506e-014 -1.43125e-014
rhumerus -49.1116 36.0563 -112.783
rradius 109.495
rwrist -10.4301
rhand 13.0366 -22.2613
rfingers 7.12502
rthumb 38.0004 -408.06
lclavicle 2.03506e-014 -1.43125e-014
lhumerus 119.228 197.074 286.864
lradius 114.001
lwrist 16.6653
lhand -4.69459 -18.47
lfingers 7.12502
lthumb 21.0868 10.4034
rfemur 0.203374 18.7409 25.5867
rtibia 11.0198
rfoot -18.3558 -20.1368
rtoes -1.45763
lfemur 5.37445 -28.2206 -13.0055
ltibia 1.46553
lfoot -11.624 32.6223
ltoes -10.9088
737
root 0.884237 17.4898 9.09571 3.03796 1.77891 -6.73007
lowerback -5.97826 1.49588 6.81767
upperback -10.4541 2.06132 1.99045
thorax -7.53464 0.611965 -1.70889
lowerneck -10.9911 -0.530648 2.95503
upperneck 28.276 -1.44715 0.0606099
head 10.8967 -0.326269 -0.664954
rclavicle -2.90847e-014 2.66868e-014
rhumerus -48.9497 34.6328 -112.578
rradius 108.729
rwrist -9.40894
rhand 14.0231 -21.7657
rfingers 7.12502
rthumb 38.9313 -407.305
lclavicle -2.90847e-014 2.66868e-014
lhumerus 119.169 196.444 287.305
lradius 113.26
lwrist 15.9572
lhand -5.08758 -18.5808
lfingers 7.12502
lthumb 20.7093 10.3343
rfemur -0.137224 18.7087 25.261
rtibia 11.97
rfoot -18.2872 -18.7375
rtoes -2.98857
lfemur 6.08188 -27.5792 -13.6363
ltibia 1.77578
lfoot -12.237 33.3494
ltoes -9.75099
738
root 0.901583 17.4529 9.07687 2.73987 -0.279323 -6.40182
lowerback -5.86155 1.20466 6.21475
upperback -9.84728 1.66527 2.44016
thorax -6.97587 0.498823 -0.904013
lowerneck -10.9249 -0.477143 2.90717
upperneck 28.2053 -1.75296 1.36319
head 10.8738 -0.322086 -0.224471
rclavicle 3.03147e-015 -3.97569e-016
rhumerus -48.2755 35.2324 -112.653
rradius 107.415
rwrist -9.50728
rhand 13.8691 -22.0608
rfingers 7.12502
rthumb 38.7861 -407.642
lclavicle 3.03147e-015 -3.97569e-016
lhumerus 118.969 195.211 287.769
lradius 112.542
lwrist 14.8756
lhand -5.37283 -18.8112
lfingers 7.12502
lthumb 20.4352 10.1335
rfemur -0.663294 18.7322 24.5961
rtibia 13.0159
rfoot -18.0709 -17.0158
rtoes -4.92314
lfemur 6.76046 -26.4165 -14.4768
ltibia 2.15381
lfoot -12.9029 34.019
ltoes -8.64982
739
root 0.917155 17.4188 9.0572 2.71588 -2.67406 -6.2481
lowerback -5.89894 1.02212 5.74463
upperback -9.36012 1.40855 2.9447
thorax -6.45089 0.437767 -0.116107
lowerneck -11.0846 -0.422109 2.79885
upperneck 28.5825 -2.06208 2.63072
head 11.0714 -0.319086 0.213756
rclavicle 2.88238e-015 2.26615e-014
rhumerus -48.1349 35.1569 -113.053
rradius 106.119
rwrist -9.88409
rhand 14.003 -22.0534
rfingers 7.12502
rthumb 38.9124 -407.598
lclavicle 2.88238e-015 2.26615e-014
lhumerus 118.656 193.777 288.19
lradius 112.007
lwrist 13.6233
lhand -5.56829 -18.8092
lfingers 7.12502
lthumb 20.2473 10.1555
rfemur -1.64766 19.0737 24.0207
rtibia 14.119
rfoot -17.8129 -15.0974
rtoes -6.41047
lfemur 7.05085 -24.7737 -14.8303
ltibia 2.53974
lfoot -13.5269 34.5859
ltoes -7.81783
